# xmcd CD database file
#
# Track frame offsets:
#	150
#	20132
#	53917
#	76468
#	94736
#	107596
#	125757
#	145441
#	167812
#	189716
#	206428
#	229290
#
# Disc length: 3284 seconds
#
# Revision: 0
# Processed by: cddbd v1.5.2PL0 Copyright (c) Steve Scherf et al.
# Submitted via: CDex 1.70beta2
#
DISCID=ae0cd20c
DTITLE=SINSKE - Sound Tracks From Dance Galaxy [Disc 2]
DYEAR=2010
DGENRE=Jazz
TTITLE0=オルゴール ローズアダージオへ捧ぐ
TTITLE1=運命のドア
TTITLE2=月のカケラ
TTITLE3=赤
TTITLE4=復讐の炎は地獄のように我が心に燃え
TTITLE5=月明かりの下で
TTITLE6=死と生の狭間にて
TTITLE7=大地のいななき
TTITLE8=カラボスの毒針
TTITLE9=目覚めの時
TTITLE10=あの場所の日だまりで
TTITLE11=満月の鼓動
EXTD=YEAR: 2010
EXTT0=
EXTT1=
EXTT2=
EXTT3=
EXTT4=
EXTT5=
EXTT6=
EXTT7=
EXTT8=
EXTT9=
EXTT10=
EXTT11=
PLAYORDER=
